<?xml version="1.0" encoding="UTF-8" standalone="no"?>
<!-- Created with Inkscape (http://www.inkscape.org/) -->

<svg
   version="1.1"
   id="svg2"
   width="666.66669"
   height="666.66669"
   viewBox="0 0 666.66669 666.66669"
   sodipodi:docname="2870078.ai"
   xmlns:inkscape="http://www.inkscape.org/namespaces/inkscape"
   xmlns:sodipodi="http://sodipodi.sourceforge.net/DTD/sodipodi-0.dtd"
   xmlns="http://www.w3.org/2000/svg"
   xmlns:svg="http://www.w3.org/2000/svg">
  <defs
     id="defs6">
    <clipPath
       clipPathUnits="userSpaceOnUse"
       id="clipPath18">
      <path
         d="M 0,500 H 500 V 0 H 0 Z"
         id="path16" />
    </clipPath>
    <clipPath
       clipPathUnits="userSpaceOnUse"
       id="clipPath484">
      <path
         d="M 0,500 H 500 V 0 H 0 Z"
         id="path482" />
    </clipPath>
  </defs>
  <sodipodi:namedview
     id="namedview4"
     pagecolor="#ffffff"
     bordercolor="#000000"
     borderopacity="0.25"
     inkscape:showpageshadow="2"
     inkscape:pageopacity="0.0"
     inkscape:pagecheckerboard="0"
     inkscape:deskcolor="#d1d1d1" />
  <g
     id="g8"
     inkscape:groupmode="layer"
     inkscape:label="2870078"
     transform="matrix(1.3333333,0,0,-1.3333333,0,666.66667)">
    <path
       d="M 0,0 H 500 V 500 H 0 Z"
       style="fill:#be95c7;fill-opacity:0;fill-rule:nonzero;stroke:none"
       id="path10" />
    <g
       id="g12">
      <g
         id="g14"
         clip-path="url(#clipPath18)">
        <g
           id="g20"
           transform="translate(161.0815,57.9277)">
          <path
             d="m 0,0 c 0,-4.858 -17.1,-8.797 -38.195,-8.797 -21.094,0 -38.195,3.939 -38.195,8.797 0,4.858 17.101,8.797 38.195,8.797 C -17.1,8.797 0,4.858 0,0"
             style="fill:#9d7aa8;fill-opacity:1;fill-rule:nonzero;stroke:none"
             id="path22" />
        </g>
        <g
           id="g24"
           transform="translate(142.6216,61.9619)">
          <path
             d="m 0,0 c 0,9.573 48.253,17.334 107.777,17.334 59.524,0 107.777,-7.761 107.777,-17.334 0,-9.574 -48.253,-17.335 -107.777,-17.335 C 48.253,-17.335 0,-9.574 0,0"
             style="fill:#9d7aa8;fill-opacity:1;fill-rule:nonzero;stroke:none"
             id="path26" />
        </g>
        <g
           id="g28"
           transform="translate(319.3887,64.3232)">
          <path
             d="M 0,0 C 0,5.75 15.867,10.411 35.44,10.411 55.014,10.411 70.881,5.75 70.881,0 70.881,-5.749 55.014,-10.41 35.44,-10.41 15.867,-10.41 0,-5.749 0,0"
             style="fill:#9d7aa8;fill-opacity:1;fill-rule:nonzero;stroke:none"
             id="path30" />
        </g>
        <g
           id="g32"
           transform="translate(172.8228,204.6104)">
          <path
             d="m 0,0 c 0,0 -2.164,18.175 12.106,34.65 14.271,16.476 22.809,17.536 20.707,33.412 -2.103,15.876 -31.44,18.793 -31.32,0 0.12,-18.793 -29.837,11.116 0,39.807 29.837,28.691 81.282,11.319 99.748,-14.966 18.466,-26.286 58.354,-97.013 58.354,-97.013 z"
             style="fill:#9d7aa8;fill-opacity:1;fill-rule:nonzero;stroke:none"
             id="path34" />
        </g>
        <path
           d="M 361.139,166.147 H 285.3 v 7.38 h 75.839 z"
           style="fill:#855019;fill-opacity:1;fill-rule:nonzero;stroke:none"
           id="path36" />
        <g
           id="g38"
           transform="translate(277.2734,62.1406)">
          <path
             d="M 0,0 H 12.67 L 33.811,104.007 H 22.266 Z"
             style="fill:#855019;fill-opacity:1;fill-rule:nonzero;stroke:none"
             id="path40" />
        </g>
        <g
           id="g42"
           transform="translate(368.917,62.1406)">
          <path
             d="m 0,0 h -12.67 l -21.141,104.007 h 11.545 z"
             style="fill:#855019;fill-opacity:1;fill-rule:nonzero;stroke:none"
             id="path44" />
        </g>
        <g
           id="g46"
           transform="translate(302.4707,123.7734)">
          <path
             d="m 0,0 h 41.249 l 2.477,-12.186 H -2.477 Z"
             style="fill:#855019;fill-opacity:1;fill-rule:nonzero;stroke:none"
             id="path48" />
        </g>
        <g
           id="g50"
           transform="translate(309.8838,160.2461)">
          <path
             d="M 0,0 1.2,5.901 H -10.345 L -11.608,0 Z"
             style="fill:#65380f;fill-opacity:1;fill-rule:nonzero;stroke:none"
             id="path52" />
        </g>
        <g
           id="g54"
           transform="translate(347.915,160.2461)">
          <path
             d="M 0,0 -1.264,5.901 H -12.809 L -11.609,0 Z"
             style="fill:#65380f;fill-opacity:1;fill-rule:nonzero;stroke:none"
             id="path56" />
        </g>
        <g
           id="g58"
           transform="translate(396.2266,346.1372)">
          <path
             d="m 0,0 c -2.786,6.5 -24.764,26.621 -74.291,34.359 -49.526,7.739 -91.934,-8.976 -91.934,-8.976 0,0 -13.368,-7.812 -8.72,-18.202 3.767,-8.419 13.363,-9.348 13.363,-9.348 0,0 111.126,-13 135.89,-13.929 C -0.929,-17.025 2.786,-8.977 0,0"
             style="fill:#181818;fill-opacity:1;fill-rule:nonzero;stroke:none"
             id="path60" />
        </g>
        <g
           id="g62"
           transform="translate(310.1729,400.9268)">
          <path
             d="m 0,0 c 0,0 -43.336,-2.477 -59.432,-20.43 -16.096,-17.954 -16.096,-35.288 -10.525,-49.837 5.572,-14.548 21.897,-19.501 24.104,-35.597 2.207,-16.096 -10.132,-38.074 9.193,-57.266 19.326,-19.192 66.377,-15.477 78.139,-8.976 11.763,6.5 21.049,19.81 25.383,53.55 4.333,33.741 -6.501,78.006 -17.335,95.959 C 38.693,-4.643 9.975,1.044 0,0"
             style="fill:#321961;fill-opacity:1;fill-rule:nonzero;stroke:none"
             id="path64" />
        </g>
        <g
           id="g66"
           transform="translate(356.6904,346.1372)">
          <path
             d="m 0,0 c 0,0 11.126,-37.444 13.007,-58.641 1.776,-20.027 -0.419,-22.511 -0.419,-22.511 0,0 -2.091,20.589 -4.286,30.393 0,0 6.387,-25.257 -8.468,-46.754 -14.855,-21.498 -49.043,-16.264 -58.863,-10.78 -9.821,5.482 -19.437,9.185 -22.626,28.607 0,0 -0.293,-7.632 0.767,-13.751 0,0 -8.458,10.532 -4.796,29.136 3.663,18.603 7.478,38.757 7.478,38.757 z"
             style="fill:#130a38;fill-opacity:1;fill-rule:nonzero;stroke:none"
             id="path68" />
        </g>
        <g
           id="g70"
           transform="translate(320.9609,287.3213)">
          <path
             d="m 0,0 c 0,0 -5.124,3.098 -13.528,-2.474 -8.404,-5.571 -14.904,-13.62 -14.904,-13.62 0,0 -9.286,-7.429 -19.191,-13.001 0,0 5.881,-8.667 4.952,-18.572 0,0 15.121,15.787 18.859,19.811 3.738,4.023 9,5.881 9,5.881 0,0 -5.262,-20.43 -7.429,-28.478 -2.166,-8.048 -10.215,-41.479 -10.215,-41.479 0,0 46.122,-15.477 72.743,0 0,0 -9.286,28.647 -12.382,42.956 -3.095,14.309 -4.024,23.906 -4.024,23.906 0,0 5.751,-12.073 11.852,-12.382 6.102,-0.31 29.008,22.597 29.008,22.597 0,0 -4.643,8.357 -3.715,21.667 0,0 -8.667,-11.762 -13.001,-17.024 -4.333,-5.263 -9.905,-11.763 -9.905,-11.763 0,0 -7.738,11.143 -12.382,18.263 -4.642,7.12 -14.665,4.873 -14.665,4.873 z"
             style="fill:#6d416b;fill-opacity:1;fill-rule:nonzero;stroke:none"
             id="path72" />
        </g>
        <g
           id="g74"
           transform="translate(261.5752,344.8989)">
          <path
             d="m 0,0 c 0,0 4.85,-14.961 6.706,-30.129 1.857,-15.167 10.318,-22.803 28.273,-20.636 17.953,2.167 21.977,3.946 23.525,-0.349 1.547,-4.294 0,-8.009 2.166,-10.176 2.167,-2.167 7.43,-1.547 8.668,0 1.238,1.548 2.167,3.096 0,8.358 -2.167,5.263 -3.901,5.263 1.3,8.358 5.2,3.095 14.486,7.119 16.963,18.882 2.476,11.763 1.857,15.477 1.857,15.477 0,0 8.048,4.334 4.952,17.025 -3.095,12.691 -15.167,10.834 -13,0 0,0 -35.597,0 -55.409,23.525 C 26.001,30.335 5.881,17.954 0,0"
             style="fill:#f7d2b3;fill-opacity:1;fill-rule:nonzero;stroke:none"
             id="path76" />
        </g>
        <g
           id="g78"
           transform="translate(385.7021,272.4658)">
          <path
             d="M 0,0 C 0,0 0.824,0.267 1.828,2.554 2.831,4.84 2.012,20.507 -3.715,21.668 -3.715,21.668 -5.082,9.931 0,0"
             style="fill:#3e243d;fill-opacity:1;fill-rule:nonzero;stroke:none"
             id="path80" />
        </g>
        <g
           id="g82"
           transform="translate(281.4473,400.0786)">
          <path
             d="m 0,0 c 0,0 5.51,18.492 7.367,20.04 1.858,1.547 15.478,1.547 22.597,0 7.12,-1.548 1.857,-7.12 -1.238,-19.192 C 27.687,-3.176 0.326,-1.35 0,0"
             style="fill:#ed9000;fill-opacity:1;fill-rule:nonzero;stroke:none"
             id="path84" />
        </g>
        <g
           id="g86"
           transform="translate(278.29,239.6543)">
          <path
             d="M 0,0 C 0,0 -0.361,-0.671 -2.425,3.25 -4.488,7.171 -5.829,16.044 -4.952,18.572 -4.952,18.572 0.98,10.627 0,0"
             style="fill:#3e243d;fill-opacity:1;fill-rule:nonzero;stroke:none"
             id="path88" />
        </g>
        <g
           id="g90"
           transform="translate(364.2256,390.5132)">
          <path
             d="m 0,0 v 17.842 c 0,0 -16.35,9.181 -49.595,9.853 l -4.458,-17.281 c 0,0 13.075,2.388 54.053,-10.414"
             style="fill:#6d416b;fill-opacity:1;fill-rule:nonzero;stroke:none"
             id="path92" />
        </g>
        <g
           id="g94"
           transform="translate(391.2734,403.957)">
          <path
             d="m 0,0 c -4.643,3.03 -5.881,20.186 -17.024,39.996 -11.144,19.811 -32.502,24.145 -48.909,15.168 -16.406,-8.977 -36.526,-39.003 -36.526,-39.003 1.857,1.548 15.478,1.548 22.597,0 1.751,-0.38 2.75,-1.006 3.219,-1.91 33.246,-0.671 49.595,-9.852 49.595,-9.852 0,0 8.166,0 13.788,-4.399 5.621,-4.399 8.927,-13.555 14.808,-10.769 C 7.43,-7.983 4.644,-3.03 0,0"
             style="fill:#2e2e2e;fill-opacity:1;fill-rule:nonzero;stroke:none"
             id="path96" />
        </g>
        <g
           id="g98"
           transform="translate(381.9873,294.1338)">
          <path
             d="m 0,0 c 0,0 1.444,3.405 3.715,2.992 0,0 2.063,6.294 2.579,8.461 0.517,2.167 2.167,2.373 3.405,1.754 C 10.938,12.588 9.596,5.365 9.08,2.373 c 0,0 3.302,0.207 3.715,-2.373 0,0 2.269,0.722 3.611,-1.548 1.341,-2.27 -1.857,-11.143 -4.849,-10.834 0,0 -3.77,-6.406 -9.675,-4.699 0,0 -2.707,5.525 -1.882,17.081"
             style="fill:#f7d2b3;fill-opacity:1;fill-rule:nonzero;stroke:none"
             id="path100" />
        </g>
        <g
           id="g102"
           transform="translate(344.8418,262.251)">
          <path
             d="m 0,0 -1.828,6.481 c 0,0 -0.246,-22.062 2.442,-38.777 1.843,-11.459 6.44,-28.248 9.149,-37.677 2.314,0.86 4.54,1.888 6.643,3.112 0,0 -9.286,28.646 -12.382,42.956 C 0.929,-9.596 0,0 0,0"
             style="fill:#5d385c;fill-opacity:1;fill-rule:nonzero;stroke:none"
             id="path104" />
        </g>
        <g
           id="g106"
           transform="translate(278.2061,244.7939)">
          <path
             d="m 0,0 -0.005,0.007 c 0.001,-0.005 0.001,-0.011 0.002,-0.016 z"
             style="fill:#5d385c;fill-opacity:1;fill-rule:nonzero;stroke:none"
             id="path108" />
        </g>
        <g
           id="g110"
           transform="translate(339.8896,278.6641)">
          <path
             d="m 0,0 c 7.017,-11.151 16.805,-19.985 16.805,-19.985 0,0 3.006,3.675 6.72,8.008 3.148,3.673 15.036,16.466 18.591,20.286 -0.165,2.186 -0.198,4.577 -0.018,7.161 0,0 -8.667,-11.763 -13.001,-17.025 -4.333,-5.262 -9.906,-11.763 -9.906,-11.763 0,0 -7.738,11.144 -12.381,18.263 -4.643,7.12 -14.665,4.873 -14.665,4.873 L -11.886,9.396 C -9.839,9.376 -5.205,8.272 0,0"
             style="fill:#5d385c;fill-opacity:1;fill-rule:nonzero;stroke:none"
             id="path112" />
        </g>
        <g
           id="g114"
           transform="translate(326.8906,287.9429)">
          <path
             d="M 0,0 V 0 Z"
             style="fill:#5d385c;fill-opacity:1;fill-rule:nonzero;stroke:none"
             id="path116" />
        </g>
        <g
           id="g118"
           transform="translate(273.3379,258.2266)">
          <path
             d="m 0,0 -4.128,-1.857 c 0,0 -2.35,2.746 -6.334,2.25 -3.983,-0.496 -5.944,-2.273 -9.246,-3.448 -3.302,-1.175 -4.23,-2.31 -4.23,-3.342 0,-1.032 1.031,-2.786 2.476,-2.477 0,0 -0.825,-2.476 1.031,-4.333 0,0 -1.34,-3.096 2.374,-4.54 3.714,-1.444 9.039,1.754 9.039,1.754 0,0 4.374,0.309 6.128,3.817 l 6.826,3.342 c 0,0 -1.151,5.326 -3.936,8.834"
             style="fill:#f7d2b3;fill-opacity:1;fill-rule:nonzero;stroke:none"
             id="path120" />
        </g>
        <g
           id="g122"
           transform="translate(281.1436,327.6772)">
          <path
             d="m 0,0 c 1.001,-3.685 0.096,-7.138 -2.021,-7.713 -2.118,-0.575 -4.645,1.946 -5.646,5.63 C -8.668,1.602 -7.763,5.055 -5.646,5.63 -3.528,6.205 -1.001,3.685 0,0"
             style="fill:#202720;fill-opacity:1;fill-rule:nonzero;stroke:none"
             id="path124" />
        </g>
        <g
           id="g126"
           transform="translate(315.5078,337.7622)">
          <path
             d="m 0,0 c 1.001,-3.685 0.097,-7.138 -2.021,-7.713 -2.118,-0.575 -4.645,1.946 -5.646,5.63 C -8.668,1.602 -7.763,5.055 -5.646,5.63 -3.528,6.205 -1.001,3.685 0,0"
             style="fill:#202720;fill-opacity:1;fill-rule:nonzero;stroke:none"
             id="path128" />
        </g>
        <g
           id="g130"
           transform="translate(293.8711,325.2944)">
          <path
             d="M 0,0 C 0,0 -1.445,2.477 -3.509,0 -5.572,-2.476 -2.684,-5.365 0,-4.746"
             style="fill:none;stroke:#d4986a;stroke-width:1;stroke-linecap:round;stroke-linejoin:round;stroke-miterlimit:10;stroke-dasharray:none;stroke-opacity:1"
             id="path132" />
        </g>
        <g
           id="g134"
           transform="translate(355.9863,351.709)">
          <path
             d="m 0,0 c -3.096,12.691 -15.168,10.834 -13.001,0 0,0 -35.598,0 -55.409,23.525 0,0 6.139,-14.858 28.401,-21.668 22.261,-6.81 24.738,-5.571 28.246,-7.429 3.508,-1.857 3.921,-18.459 1.032,-26.254 -2.889,-7.796 -17.748,-16.463 -19.605,-20.797 -1.855,-4.328 3.701,-5.28 0.012,-16.84 2.166,-0.198 4.482,0.403 5.251,1.363 1.238,1.548 2.166,3.096 0,8.358 -2.167,5.263 -3.902,5.263 1.3,8.358 5.2,3.095 14.486,7.119 16.962,18.882 2.477,11.763 1.858,15.477 1.858,15.477 0,0 8.048,4.334 4.953,17.025"
             style="fill:#edbe9d;fill-opacity:1;fill-rule:nonzero;stroke:none"
             id="path136" />
        </g>
        <g
           id="g138"
           transform="translate(296.9658,312.3076)">
          <path
             d="M 0,0 C 0,0 0.413,-2.697 3.199,-3.006 5.984,-3.315 6.67,-0.942 5.708,1.328"
             style="fill:none;stroke:#d4986a;stroke-width:1;stroke-linecap:round;stroke-linejoin:round;stroke-miterlimit:10;stroke-dasharray:none;stroke-opacity:1"
             id="path140" />
        </g>
        <g
           id="g142"
           transform="translate(274.8848,343.8159)">
          <path
             d="M 0,0 C 0,0 -4.179,0 -4.798,-5.263"
             style="fill:none;stroke:#321961;stroke-width:1;stroke-linecap:round;stroke-linejoin:round;stroke-miterlimit:10;stroke-dasharray:none;stroke-opacity:1"
             id="path144" />
        </g>
        <g
           id="g146"
           transform="translate(302.6738,352.6377)">
          <path
             d="M 0,0 C 0,0 3.476,4.179 8.273,0"
             style="fill:none;stroke:#321961;stroke-width:1;stroke-linecap:round;stroke-linejoin:round;stroke-miterlimit:10;stroke-dasharray:none;stroke-opacity:1"
             id="path148" />
        </g>
        <g
           id="g150"
           transform="translate(351.8066,354.4951)">
          <path
             d="m 0,0 c 0,0 -3.714,2.786 -5.262,-0.929 -1.548,-3.715 3.25,-12.382 3.25,-12.382"
             style="fill:none;stroke:#d4986a;stroke-width:1;stroke-linecap:round;stroke-linejoin:round;stroke-miterlimit:10;stroke-dasharray:none;stroke-opacity:1"
             id="path152" />
        </g>
        <g
           id="g154"
           transform="translate(351.8066,349.3877)">
          <path
             d="M 0,0 C 0,0 -4.678,0.773 -4.273,-3.25"
             style="fill:none;stroke:#d4986a;stroke-width:1;stroke-linecap:round;stroke-linejoin:round;stroke-miterlimit:10;stroke-dasharray:none;stroke-opacity:1"
             id="path156" />
        </g>
        <g
           id="g158"
           transform="translate(279.0723,311.0718)">
          <path
             d="m 0,0 c 0.338,-1.243 -1.194,-2.74 -3.421,-3.345 -2.227,-0.605 -4.307,-0.089 -4.643,1.154 -0.338,1.243 1.194,2.74 3.42,3.345 C -2.416,1.759 -0.337,1.243 0,0"
             style="fill:#f9aac1;fill-opacity:1;fill-rule:nonzero;stroke:none"
             id="path160" />
        </g>
        <g
           id="g162"
           transform="translate(330.7607,327.7314)">
          <path
             d="m 0,0 c 0.337,-1.243 -1.194,-2.74 -3.422,-3.345 -2.227,-0.605 -4.307,-0.089 -4.643,1.154 -0.338,1.243 1.194,2.74 3.42,3.345 C -2.417,1.759 -0.338,1.243 0,0"
             style="fill:#f9aac1;fill-opacity:1;fill-rule:nonzero;stroke:none"
             id="path164" />
        </g>
        <g
           id="g166"
           transform="translate(307.4326,190.75)">
          <path
             d="m 0,0 -0.664,-8.98 c 0,0 2.476,0.619 3.56,-2.013 1.083,-2.631 1.238,-3.56 1.238,-3.56 h 1.702 l 1.731,13.376 z"
             style="fill:#321961;fill-opacity:1;fill-rule:nonzero;stroke:none"
             id="path168" />
        </g>
        <g
           id="g170"
           transform="translate(310.3281,179.7568)">
          <path
             d="m 0,0 c -1.084,2.632 -3.56,2.013 -3.56,2.013 -2.322,-3.406 -5.572,-5.573 -5.572,-5.573 0,0 -1.702,-1.392 -2.321,-0.773 -0.619,0.619 -0.929,4.023 -2.631,2.103 -1.703,-1.922 -1.084,-6.591 3.714,-6.901 4.798,-0.309 13.31,0.929 13.31,0.929 V -3.56 H 1.238 c 0,0 -0.155,0.929 -1.238,3.56"
             style="fill:#ed9000;fill-opacity:1;fill-rule:nonzero;stroke:none"
             id="path172" />
        </g>
        <g
           id="g174"
           transform="translate(339.4541,179.7568)">
          <path
             d="m 0,0 c 1.083,2.632 3.56,2.013 3.56,2.013 2.321,-3.406 5.571,-5.573 5.571,-5.573 0,0 1.703,-1.392 2.322,-0.773 0.619,0.619 0.929,4.023 2.631,2.103 1.702,-1.922 1.083,-6.591 -3.715,-6.901 -4.798,-0.309 -13.31,0.929 -13.31,0.929 v 4.642 h 1.703 c 0,0 0.154,0.929 1.238,3.56"
             style="fill:#ed9000;fill-opacity:1;fill-rule:nonzero;stroke:none"
             id="path176" />
        </g>
        <g
           id="g178"
           transform="translate(334.9062,188.6113)">
          <path
             d="M 0,0 1.606,-12.414 H 3.31 c 0,0 0.154,0.929 1.238,3.56 1.083,2.631 3.559,2.012 3.559,2.012 L 7.55,0.689 C 5.058,0.338 2.531,0.115 0,0"
             style="fill:#321961;fill-opacity:1;fill-rule:nonzero;stroke:none"
             id="path180" />
        </g>
        <g
           id="g182"
           transform="translate(286.2402,402.8804)">
          <path
             d="m 0,0 c 0,0 3.935,13.204 5.261,14.309 1.326,1.105 11.051,1.105 16.134,0 C 26.479,13.204 22.721,9.225 20.511,0.605 19.77,-2.268 0.232,-0.964 0,0"
             style="fill:#6d416b;fill-opacity:1;fill-rule:nonzero;stroke:none"
             id="path184" />
        </g>
        <g
           id="g186"
           transform="translate(285.5273,412.7021)">
          <path
             d="m 0,0 c 0,0 9.844,-0.013 12.68,-0.787 2.835,-0.774 2.271,-4.024 0,-4.334 -2.273,-0.309 -14.177,0.717 -14.177,0.717 z"
             style="fill:#ed9000;fill-opacity:1;fill-rule:nonzero;stroke:none"
             id="path188" />
        </g>
        <g
           id="g190"
           transform="translate(278.6006,201.4346)">
          <path
             d="m 0,0 c -0.707,0 -1.387,0.396 -1.714,1.077 l -35.287,73.429 c -0.455,0.946 -0.057,2.081 0.889,2.536 0.946,0.454 2.081,0.056 2.536,-0.89 L 1.712,2.723 C 2.166,1.777 1.769,0.642 0.822,0.187 0.557,0.061 0.276,0 0,0"
             style="fill:#855019;fill-opacity:1;fill-rule:nonzero;stroke:none"
             id="path192" />
        </g>
        <g
           id="g194"
           transform="translate(250.9082,248.8896)">
          <path
             d="M 0,0 C 0,0 4.127,2.063 6.294,2.528 6.762,2.628 7.211,2.646 7.63,2.589 10.059,2.263 10.805,-0.1 8.693,-1.342 7.745,-1.899 5.275,-3.496 3.354,-3.767 -1.6,-4.463 -0.413,-1.367 0,0"
             style="fill:#ebb894;fill-opacity:1;fill-rule:nonzero;stroke:none"
             id="path196" />
        </g>
        <g
           id="g198"
           transform="translate(252.4385,244.7256)">
          <path
             d="M 0,0 C 0,0 4.127,2.063 6.294,2.528 6.762,2.628 7.211,2.646 7.63,2.59 10.059,2.264 10.805,-0.099 8.692,-1.341 7.745,-1.898 5.275,-3.496 3.354,-3.767 -1.6,-4.463 -0.413,-1.367 0,0"
             style="fill:#ebb894;fill-opacity:1;fill-rule:nonzero;stroke:none"
             id="path200" />
        </g>
        <g
           id="g202"
           transform="translate(255.6953,242.6396)">
          <path
             d="M 0,0 C 0,0 3.393,1.696 5.173,2.078 5.558,2.16 5.927,2.175 6.271,2.128 8.268,1.86 8.881,-0.081 7.145,-1.103 6.366,-1.561 4.336,-2.873 2.756,-3.096 -1.314,-3.668 -0.339,-1.124 0,0"
             style="fill:#ebb894;fill-opacity:1;fill-rule:nonzero;stroke:none"
             id="path204" />
        </g>
        <g
           id="g206"
           transform="translate(406.3838,333.5469)">
          <path
             d="m 0,0 v -0.177 c -0.01,-0.996 -0.324,-6.282 -5.868,-7.449 0,0 4.965,-0.878 5.886,-6.677 1.013,5.696 5.884,6.677 5.884,6.677 C 0.018,-6.595 0,0 0,0"
             style="fill:#ffffff;fill-opacity:1;fill-rule:nonzero;stroke:none"
             id="path208" />
        </g>
        <g
           id="g210"
           transform="translate(408.7744,308.0527)">
          <path
             d="m 0,0 v -0.105 c -0.006,-0.593 -0.192,-3.738 -3.491,-4.433 0,0 2.954,-0.522 3.502,-3.972 0.602,3.389 3.501,3.972 3.501,3.972 C 0.011,-3.924 0,0 0,0"
             style="fill:#ffffff;fill-opacity:1;fill-rule:nonzero;stroke:none"
             id="path212" />
        </g>
        <g
           id="g214"
           transform="translate(390.2588,323.4292)">
          <path
             d="m 0,0 v -0.105 c -0.006,-0.593 -0.192,-3.738 -3.491,-4.433 0,0 2.954,-0.522 3.502,-3.972 0.603,3.389 3.502,3.972 3.502,3.972 C 0.011,-3.924 0,0 0,0"
             style="fill:#ffffff;fill-opacity:1;fill-rule:nonzero;stroke:none"
             id="path216" />
        </g>
        <g
           id="g218"
           transform="translate(385.7021,297.5132)">
          <path
             d="m 0,0 c 0,0 2.785,0 5.365,-0.619 2.58,-0.619 3.199,-5.572 0,-5.469 l -3.198,0.103 c 0,0 -0.967,-5.687 -5.789,-6.295 0,0 -0.519,4.838 -0.093,9.288 C -3.486,-0.61 0,0 0,0"
             style="fill:#ebb894;fill-opacity:1;fill-rule:nonzero;stroke:none"
             id="path220" />
        </g>
        <g
           id="g222"
           transform="translate(274.8848,328.0078)">
          <path
             d="M 0,0 C 0.918,0 0.919,1.425 0,1.425 -0.917,1.425 -0.918,0 0,0"
             style="fill:#ffffff;fill-opacity:1;fill-rule:nonzero;stroke:none"
             id="path224" />
        </g>
        <g
           id="g226"
           transform="translate(309.1348,337.8408)">
          <path
             d="M 0,0 C 0.917,0 0.918,1.425 0,1.425 -0.917,1.425 -0.919,0 0,0"
             style="fill:#ffffff;fill-opacity:1;fill-rule:nonzero;stroke:none"
             id="path228" />
        </g>
        <g
           id="g230"
           transform="translate(393.1309,401.7324)">
          <path
             d="m 0,0 c 0,0 3.149,-8.747 -5.984,-3.261 -9.133,5.486 -5.366,9.168 -13.62,11.641 -8.254,2.474 -9.301,12.585 -9.301,12.585 0,0 -1.14,-5.599 1.047,-10.111 0,0 -3.921,0.339 -10.319,5.432 0,0 -0.27,-2.542 3.469,-7.132 3.875,-1.448 5.803,-2.53 5.803,-2.53 0,0 8.166,0 13.788,-4.399 5.621,-4.399 8.927,-13.556 14.807,-10.769 4.777,2.262 3.837,5.953 0.83,8.883 z"
             style="fill:#181818;fill-opacity:1;fill-rule:nonzero;stroke:none"
             id="path232" />
        </g>
        <g
           id="g234"
           transform="translate(299.4531,421.2676)">
          <path
             d="m 0,0 c 2.813,3.541 7.126,8.549 11.494,12.006 7.429,5.882 5.571,10.06 11.453,13.775 5.881,3.715 15.013,9.132 27.55,8.048 C 62.92,32.756 70.809,28.494 70.951,28.417 59.207,43.251 40.567,45.886 25.888,37.854 9.481,28.876 -10.639,-1.149 -10.639,-1.149 -9.621,-0.302 -5.074,0.081 0,0"
             style="fill:#474747;fill-opacity:1;fill-rule:nonzero;stroke:none"
             id="path236" />
        </g>
        <g
           id="g238"
           transform="translate(249.5415,377.248)">
          <path
             d="m 0,0 c 0,0 -4.341,-3.789 -8.587,-11.259 0,0 5.312,5.324 11.057,8.007 0,0 -2.976,-3.921 -5.529,-9.905 0,0 6.448,6.603 17.838,11.143 11.39,4.54 27.991,4.646 43.113,2.014 0,0 14.296,-8.617 27.297,-11.713 0,0 -6.623,3.302 -12.082,7.223 0,0 10.018,-4.54 21.987,-7.016 11.969,-2.477 15.147,-2.173 23.051,-5.523 0,0 -0.764,9.031 -8.398,16.46 C 102.111,6.86 45.98,18.638 26.375,13.265 6.771,7.892 0,0 0,0"
             style="fill:#130a38;fill-opacity:1;fill-rule:nonzero;stroke:none"
             id="path240" />
        </g>
        <g
           id="g242"
           transform="translate(352.126,394.0869)">
          <path
             d="m 0,0 c 3.737,-1.038 7.752,-2.215 12.1,-3.574 v 17.843 c 0,0 -3.729,2.088 -11.226,4.346 z"
             style="fill:#4f304f;fill-opacity:1;fill-rule:nonzero;stroke:none"
             id="path244" />
        </g>
        <g
           id="g246"
           transform="translate(311.709,420.0444)">
          <path
             d="m 0,0 c 3.658,-2.282 -0.687,-7.865 -3.388,-18.396 -0.879,-3.405 -20.603,-2.621 -26.847,-1.481 -0.016,-0.053 -0.027,-0.089 -0.027,-0.089 0.326,-1.349 27.688,-3.176 28.726,0.848 C 1.514,-7.224 6.658,-1.643 0,0"
             style="fill:#c67300;fill-opacity:1;fill-rule:nonzero;stroke:none"
             id="path248" />
        </g>
        <g
           id="g250"
           transform="translate(299.6025,411.0884)">
          <path
             d="m 0,0 c 0.061,-1.045 -0.666,-2.099 -1.912,-2.269 -1.891,-0.257 -10.443,0.41 -13.265,0.641 l -0.395,-1.163 c 0,0 11.904,-1.025 14.176,-0.716 C 0.371,-3.266 1.096,-1.25 0,0"
             style="fill:#c67300;fill-opacity:1;fill-rule:nonzero;stroke:none"
             id="path252" />
        </g>
        <g
           id="g254"
           transform="translate(289.2305,418.9434)">
          <path
             d="m 0,0 c 1.857,1.547 15.478,1.547 22.597,0 1.613,-0.351 2.586,-0.911 3.097,-1.704 -0.196,1.442 -1.196,2.375 -3.513,2.879 -7.119,1.548 -20.74,1.548 -22.597,0 -1.857,-1.548 -7.367,-20.04 -7.367,-20.04 0.027,-0.116 0.268,-0.236 0.663,-0.355 C -6.029,-15.625 -1.622,-1.352 0,0"
             style="fill:#f7c57e;fill-opacity:1;fill-rule:nonzero;stroke:none"
             id="path256" />
        </g>
        <g
           id="g258"
           transform="translate(230.0015,371.52)">
          <path
             d="m 0,0 c 0,0 42.408,16.715 91.934,8.977 49.527,-7.739 71.505,-27.859 74.291,-34.36 0,0 -4.643,30.336 -36.217,46.741 C 98.435,37.764 43.027,39.931 0,0"
             style="fill:#2e2e2e;fill-opacity:1;fill-rule:nonzero;stroke:none"
             id="path260" />
        </g>
        <g
           id="g262"
           transform="translate(360.0098,392.8784)">
          <path
             d="M 0,0 C -2.453,1.274 -5.05,2.463 -7.773,3.552 -7.763,3.545 8.386,-7.802 19,-31.431 c 10.458,-6.306 15.92,-12.284 17.217,-15.31 0,0 -4.644,30.335 -36.217,46.741"
             style="fill:#181818;fill-opacity:1;fill-rule:nonzero;stroke:none"
             id="path264" />
        </g>
        <g
           id="g266"
           transform="translate(292.7783,402.4668)">
          <path
             d="m 0,0 c -21.221,-3.394 -43.271,-12.844 -62.777,-30.947 0,0 7.367,2.902 19.54,5.728 C -33.484,-17.229 -18.55,-6.896 0,0"
             style="fill:#474747;fill-opacity:1;fill-rule:nonzero;stroke:none"
             id="path268" />
        </g>
        <g
           id="g270"
           transform="translate(242.4863,357.4873)">
          <path
             d="m 0,0 c 0,0 -3.389,-10.578 -1.075,-20.767 2.313,-10.188 13.933,-19.061 13.933,-19.061 0,0 -5.597,5.864 -7.37,10.877 0,0 8.724,-11.29 12.865,-14.901 0,0 -5.971,8.151 -11.44,18.263 -5.469,10.111 0,29.922 0,29.922 0,0 -5.469,-8.448 -6.913,-14.028 0,0 -0.413,6.806 0,9.695"
             style="fill:#5f44a2;fill-opacity:1;fill-rule:nonzero;stroke:none"
             id="path272" />
        </g>
        <g
           id="g274"
           transform="translate(295.1602,372.2939)">
          <path
             d="m 0,0 c 0,0 20.121,-16.103 41.634,-16.796 0,0 -21.822,6.271 -41.634,16.796"
             style="fill:#5f44a2;fill-opacity:1;fill-rule:nonzero;stroke:none"
             id="path276" />
        </g>
        <g
           id="g278"
           transform="translate(297.1494,259.4648)">
          <path
             d="m 0,0 c 3.737,4.024 9,5.881 9,5.881 0,0 -0.17,-0.657 -0.456,-1.769 l 3.441,9.095 c 0,0 -2.469,-3.714 -4.808,-5.365 -2.34,-1.651 -7.98,-4.953 -13.758,-12.135 -5.777,-7.183 -12.785,-7.825 -12.785,-7.825 l -0.013,0.015 c 0.508,-2.376 0.775,-4.991 0.52,-7.708 0,0 15.121,15.787 18.859,19.811"
             style="fill:#5d385c;fill-opacity:1;fill-rule:nonzero;stroke:none"
             id="path280" />
        </g>
        <g
           id="g282"
           transform="translate(337.4131,249.3921)">
          <path
             d="m 0,0 c 0,0 -4.334,-13.866 -18.985,-20.262 0,0 16.715,2.347 18.985,20.262"
             style="fill:#5d385c;fill-opacity:1;fill-rule:nonzero;stroke:none"
             id="path284" />
        </g>
        <g
           id="g286"
           transform="translate(310.8838,223.958)">
          <path
             d="M 0,0 C 0,0 14.767,1.663 22.402,9.918 22.402,9.918 18.871,-1.251 0,0"
             style="fill:#5d385c;fill-opacity:1;fill-rule:nonzero;stroke:none"
             id="path288" />
        </g>
        <g
           id="g290"
           transform="translate(331.0098,185.3389)">
          <path
             d="m 0,0 h 0.11 c 0,0 6.192,2.89 8.667,11.557 h -0.08 c 0.329,0.603 0.502,1.216 0.502,1.837 0,9.47 -39.229,17.148 -87.621,17.148 -48.391,0 -87.62,-7.678 -87.62,-17.148 0,-0.819 0.3,-1.624 0.867,-2.414 2.582,-8.208 8.481,-10.98 8.481,-10.98 0,0 -28.155,-33.224 -23.113,-77.18 8.978,-78.264 190.399,-79.15 202.919,0 C 30.025,-33.479 0,0 0,0"
             style="fill:#2c2c2c;fill-opacity:1;fill-rule:nonzero;stroke:none"
             id="path292" />
        </g>
        <g
           id="g294"
           transform="translate(332.418,200.5)">
          <path
             d="m 0,0 c 0,-6.322 -35.727,-11.447 -79.798,-11.447 -44.071,0 -79.797,5.125 -79.797,11.447 0,6.322 35.726,11.447 79.797,11.447 C -35.727,11.447 0,6.322 0,0"
             style="fill:#181818;fill-opacity:1;fill-rule:nonzero;stroke:none"
             id="path296" />
        </g>
        <g
           id="g298"
           transform="translate(322.4844,201.5352)">
          <path
             d="M 0,0 C -11.763,0.049 -37.609,1.654 -51.385,1.035 -65.159,0.416 -79.244,-0.048 -91.668,0 c -12.426,0.049 -21.471,1.035 -34.007,1.035 -12.537,0 -23.987,-2.07 -23.987,-2.07 0,-6.322 35.727,-11.447 79.798,-11.447 44.071,0 79.798,5.125 79.798,11.447 0,0.249 -0.076,0.496 -0.184,0.741 C 7.182,-0.14 3.953,-0.017 0,0"
             style="fill:#63ed79;fill-opacity:1;fill-rule:nonzero;stroke:none"
             id="path300" />
        </g>
        <g
           id="g302"
           transform="translate(230.502,50.4316)">
          <path
             d="m 0,0 c 53.855,-6.686 116.448,12.388 123.62,57.728 6.591,41.663 -20.391,74.034 -22.923,76.962 C 102.731,129.04 142.587,13.313 0,0"
             style="fill:#181818;fill-opacity:1;fill-rule:nonzero;stroke:none"
             id="path304" />
        </g>
        <g
           id="g306"
           transform="translate(174.3159,185.3389)">
          <path
             d="m 0,0 c 0,0 58.496,-18.002 156.883,-0.217 l 2.452,-3.051 C 159.335,-3.268 67.893,-22.522 0,0"
             style="fill:#181818;fill-opacity:1;fill-rule:nonzero;stroke:none"
             id="path308" />
        </g>
        <g
           id="g310"
           transform="translate(174.3159,185.3389)">
          <path
             d="m 0,0 c 0,0 -28.155,-33.224 -23.113,-77.18 2.623,-22.862 19.964,-39.119 43.508,-48.709 C -47.326,-87.954 0,0 0,0"
             style="fill:#767676;fill-opacity:1;fill-rule:nonzero;stroke:none"
             id="path312" />
        </g>
        <g
           id="g314"
           transform="translate(327.7461,150.4404)">
          <path
             d="m 0,0 c 0,-5.898 -3.464,-10.68 -7.738,-10.68 -4.274,0 -7.739,4.782 -7.739,10.68 0,5.898 3.465,10.68 7.739,10.68 C -3.464,10.68 0,5.898 0,0"
             style="fill:#181818;fill-opacity:1;fill-rule:nonzero;stroke:none"
             id="path316" />
        </g>
        <g
           id="g318"
           transform="translate(322.4844,123.2002)">
          <path
             d="m 0,0 c 0,-2.479 -1.386,-4.488 -3.096,-4.488 -1.709,0 -3.095,2.009 -3.095,4.488 0,2.479 1.386,4.488 3.095,4.488 C -1.386,4.488 0,2.479 0,0"
             style="fill:#181818;fill-opacity:1;fill-rule:nonzero;stroke:none"
             id="path320" />
        </g>
        <g
           id="g322"
           transform="translate(172.8228,204.6104)">
          <path
             d="m 0,0 c 0,0 -7.587,-2.631 -5.42,-6.81 2.167,-4.178 10.524,-10.065 35.442,-12.461 0,0 -44.877,9.056 -30.022,19.271"
             style="fill:#767676;fill-opacity:1;fill-rule:nonzero;stroke:none"
             id="path324" />
        </g>
        <g
           id="g326"
           transform="translate(319.3887,197.6455)">
          <path
             d="m 0,0 c -3.56,0.31 -7.738,-0.154 -19.811,-2.671 -12.072,-2.516 -9.751,0.505 -24.918,0.908 -15.167,0.404 -15.013,0.37 -22.04,-1.641 -7.025,-2.013 -9.224,-0.619 -20.987,-0.929 -11.763,-0.31 -15.322,0.154 -11.763,1.561 3.561,1.405 7.894,2.772 3.87,2.618 -4.024,-0.156 -10.37,0 -19.501,0.619 -9.132,0.619 -9.751,0.773 -8.822,-0.929 0.928,-1.702 5.572,-2.631 0.773,-2.207 -4.798,0.425 -8.976,1.124 -15.167,3.136 -6.191,2.012 -8.2,2.389 -8.2,2.389 0,-6.322 35.727,-11.447 79.797,-11.447 44.072,0 79.798,5.125 79.798,11.447 C 13.029,2.854 3.56,-0.31 0,0"
             style="fill:#58d769;fill-opacity:1;fill-rule:nonzero;stroke:none"
             id="path328" />
        </g>
        <g
           id="g330"
           transform="translate(249.2227,196.8789)">
          <path
             d="m 0,0 c 0,-0.824 -4.751,-1.492 -10.613,-1.492 -5.862,0 -10.614,0.668 -10.614,1.492 0,0.824 4.752,1.492 10.614,1.492 C -4.751,1.492 0,0.824 0,0"
             style="fill:#58d769;fill-opacity:1;fill-rule:nonzero;stroke:none"
             id="path332" />
        </g>
        <g
           id="g334"
           transform="translate(234.7402,196.9463)">
          <path
             d="m 0,0 c 3.605,-0.194 8.372,0.07 11.412,0.294 0.026,0.26 0.041,0.522 0.041,0.79 0,4.188 -3.395,7.583 -7.584,7.583 -4.188,0 -7.584,-3.395 -7.584,-7.583 0,-0.262 0.013,-0.52 0.039,-0.774 C -2.682,0.189 -1.47,0.08 0,0"
             style="fill:#63ed79;fill-opacity:1;fill-rule:nonzero;stroke:none"
             id="path336" />
        </g>
        <g
           id="g338"
           transform="translate(231.4224,197.2158)">
          <path
             d="m 0,0 c 0.451,1.174 1.268,3.044 2.352,4.457 1.7,2.216 4.482,3.453 7.625,3.404 -0.865,0.343 -1.804,0.536 -2.79,0.536 -4.188,0 -7.584,-3.394 -7.584,-7.583 0,-0.261 0.013,-0.519 0.039,-0.774 C -0.245,0.026 -0.119,0.014 0,0"
             style="fill:#aeefaf;fill-opacity:1;fill-rule:nonzero;stroke:none"
             id="path340" />
        </g>
        <g
           id="g342"
           transform="translate(233.6294,201.374)">
          <path
             d="M 0,0 C 0.247,-0.276 1.043,0.033 1.779,0.69 2.515,1.348 2.912,2.104 2.665,2.381 2.418,2.657 1.622,2.348 0.886,1.69 0.15,1.033 -0.247,0.276 0,0"
             style="fill:#aeefaf;fill-opacity:1;fill-rule:nonzero;stroke:none"
             id="path344" />
        </g>
        <g
           id="g346"
           transform="translate(213.459,196.8789)">
          <path
             d="m 0,0 c 0,-0.824 -4.752,-1.492 -10.614,-1.492 -5.861,0 -10.613,0.668 -10.613,1.492 0,0.824 4.752,1.492 10.613,1.492 C -4.752,1.492 0,0.824 0,0"
             style="fill:#58d769;fill-opacity:1;fill-rule:nonzero;stroke:none"
             id="path348" />
        </g>
        <g
           id="g350"
           transform="translate(198.9761,196.9463)">
          <path
             d="m 0,0 c 3.605,-0.194 8.372,0.07 11.412,0.294 0.026,0.26 0.041,0.522 0.041,0.79 0,4.188 -3.395,7.583 -7.584,7.583 -4.188,0 -7.583,-3.395 -7.583,-7.583 0,-0.262 0.013,-0.52 0.039,-0.774 C -2.681,0.189 -1.47,0.08 0,0"
             style="fill:#63ed79;fill-opacity:1;fill-rule:nonzero;stroke:none"
             id="path352" />
        </g>
        <g
           id="g354"
           transform="translate(195.6582,197.2158)">
          <path
             d="m 0,0 c 0.451,1.174 1.268,3.044 2.352,4.457 1.7,2.216 4.482,3.453 7.625,3.404 -0.864,0.343 -1.804,0.536 -2.79,0.536 -4.188,0 -7.583,-3.394 -7.583,-7.583 0,-0.261 0.013,-0.519 0.039,-0.774 C -0.245,0.026 -0.119,0.014 0,0"
             style="fill:#aeefaf;fill-opacity:1;fill-rule:nonzero;stroke:none"
             id="path356" />
        </g>
        <g
           id="g358"
           transform="translate(197.8652,201.374)">
          <path
             d="M 0,0 C 0.247,-0.276 1.043,0.033 1.779,0.69 2.515,1.348 2.912,2.104 2.665,2.381 2.418,2.657 1.622,2.348 0.886,1.69 0.15,1.033 -0.247,0.276 0,0"
             style="fill:#aeefaf;fill-opacity:1;fill-rule:nonzero;stroke:none"
             id="path360" />
        </g>
        <g
           id="g362"
           transform="translate(273.7207,196.917)">
          <path
             d="m 0,0 c 0,-0.587 -3.386,-1.063 -7.562,-1.063 -4.176,0 -7.562,0.476 -7.562,1.063 0,0.587 3.386,1.063 7.562,1.063 C -3.386,1.063 0,0.587 0,0"
             style="fill:#58d769;fill-opacity:1;fill-rule:nonzero;stroke:none"
             id="path364" />
        </g>
        <g
           id="g366"
           transform="translate(263.4023,196.9648)">
          <path
             d="m 0,0 c 2.568,-0.139 5.965,0.051 8.13,0.209 0.019,0.186 0.029,0.373 0.029,0.563 0,2.985 -2.419,5.404 -5.402,5.404 -2.985,0 -5.403,-2.419 -5.403,-5.404 0,-0.186 0.008,-0.37 0.027,-0.551 C -1.911,0.136 -1.048,0.057 0,0"
             style="fill:#63ed79;fill-opacity:1;fill-rule:nonzero;stroke:none"
             id="path368" />
        </g>
        <g
           id="g370"
           transform="translate(261.0381,197.1572)">
          <path
             d="M 0,0 C 0.321,0.837 0.903,2.169 1.676,3.175 2.888,4.754 4.869,5.636 7.108,5.601 6.492,5.845 5.823,5.983 5.121,5.983 2.137,5.983 -0.282,3.564 -0.282,0.58 -0.282,0.394 -0.273,0.21 -0.255,0.028 -0.174,0.019 -0.084,0.01 0,0"
             style="fill:#aeefaf;fill-opacity:1;fill-rule:nonzero;stroke:none"
             id="path372" />
        </g>
        <g
           id="g374"
           transform="translate(262.6104,200.1201)">
          <path
             d="M 0,0 C 0.176,-0.197 0.744,0.023 1.268,0.491 1.792,0.96 2.075,1.499 1.899,1.695 1.724,1.893 1.156,1.673 0.632,1.204 0.107,0.735 -0.176,0.196 0,0"
             style="fill:#aeefaf;fill-opacity:1;fill-rule:nonzero;stroke:none"
             id="path376" />
        </g>
        <g
           id="g378"
           transform="translate(306.6973,195.8145)">
          <path
             d="m 0,0 c 0,-0.816 -4.704,-1.478 -10.508,-1.478 -5.803,0 -10.507,0.662 -10.507,1.478 0,0.815 4.704,1.477 10.507,1.477 C -4.704,1.477 0,0.815 0,0"
             style="fill:#58d769;fill-opacity:1;fill-rule:nonzero;stroke:none"
             id="path380" />
        </g>
        <g
           id="g382"
           transform="translate(292.3594,195.8809)">
          <path
             d="m 0,0 c 3.568,-0.192 8.288,0.069 11.298,0.291 0.026,0.257 0.041,0.518 0.041,0.782 0,4.147 -3.361,7.508 -7.509,7.508 -4.146,0 -7.508,-3.361 -7.508,-7.508 0,-0.259 0.013,-0.514 0.039,-0.766 C -2.655,0.188 -1.456,0.079 0,0"
             style="fill:#63ed79;fill-opacity:1;fill-rule:nonzero;stroke:none"
             id="path384" />
        </g>
        <g
           id="g386"
           transform="translate(289.0742,196.1484)">
          <path
             d="M 0,0 C 0.447,1.162 1.255,3.013 2.328,4.412 4.012,6.605 6.767,7.83 9.878,7.782 9.021,8.121 8.092,8.313 7.115,8.313 2.969,8.313 -0.393,4.952 -0.393,0.806 -0.393,0.547 -0.38,0.291 -0.354,0.039 -0.242,0.025 -0.117,0.013 0,0"
             style="fill:#aeefaf;fill-opacity:1;fill-rule:nonzero;stroke:none"
             id="path388" />
        </g>
        <g
           id="g390"
           transform="translate(291.2598,200.2646)">
          <path
             d="M 0,0 C 0.244,-0.273 1.032,0.032 1.762,0.684 2.49,1.334 2.883,2.083 2.638,2.356 2.394,2.63 1.605,2.324 0.877,1.674 0.148,1.022 -0.244,0.273 0,0"
             style="fill:#aeefaf;fill-opacity:1;fill-rule:nonzero;stroke:none"
             id="path392" />
        </g>
        <g
           id="g394"
           transform="translate(128.6895,64.8281)">
          <path
             d="m 0,0 c 0,0 -0.874,-4.47 0,-7.342 l 10.161,-0.261 c 0,0 1.083,3.25 -1.084,3.802 0,0 1.084,4.73 -2.166,7.825 C 3.66,7.12 1.138,3.561 0,0"
             style="fill:#181818;fill-opacity:1;fill-rule:nonzero;stroke:none"
             id="path396" />
        </g>
        <g
           id="g398"
           transform="translate(105.2363,109.0938)">
          <path
             d="m 0,0 c 0,0 0.929,-8.049 4.333,-13.001 3.406,-4.953 8.823,-5.417 8.823,-5.417 0,0 16.715,-3.096 24.453,5.417 7.739,8.512 1.703,22.287 1.703,22.287 0,0 0.929,9.442 -3.25,12.846 -4.179,3.405 -7.12,-7.894 -7.12,-7.894 0,0 -10.988,1.239 -21.668,-3.714 0,0 -3.56,7.429 -8.203,6.965 C -5.572,17.024 0,0 0,0"
             style="fill:#2c2c2c;fill-opacity:1;fill-rule:nonzero;stroke:none"
             id="path400" />
        </g>
        <g
           id="g402"
           transform="translate(136.6489,91.9824)">
          <path
             d="m 0,0 c -8.137,-3.179 -18.257,-1.307 -18.257,-1.307 0,0 -2.786,-2.631 -4.024,-7.893 -1.239,-5.263 -6.965,-4.798 -9.132,-13.001 -2.167,-8.203 4.334,-13.465 17.644,-12.072 13.311,1.392 17.335,11.298 17.644,17.644 0.31,6.345 0.454,11.743 -3.875,16.628 z"
             style="fill:#2c2c2c;fill-opacity:1;fill-rule:nonzero;stroke:none"
             id="path404" />
        </g>
        <g
           id="g406"
           transform="translate(104.894,67.7715)">
          <path
             d="m 0,0 c 0.06,0.65 0.159,1.315 0.342,2.01 0.367,1.389 0.842,2.514 1.374,3.476 -10e-4,0.001 -0.005,0.01 -0.005,0.01 0,0 -4.619,2.396 -7.405,6.574 -2.786,4.179 -4.179,12.073 -3.405,19.036 0.774,6.965 -6.191,11.918 -9.441,10.835 -3.25,-1.084 -1.393,-5.262 2.631,-8.668 2.012,-2.167 1.393,-4.333 1.702,-14.239 C -13.897,9.129 -4.709,1.246 -0.017,0.003 -0.011,0.001 -0.006,0.002 0,0"
             style="fill:#2c2c2c;fill-opacity:1;fill-rule:nonzero;stroke:none"
             id="path408" />
        </g>
        <g
           id="g410"
           transform="translate(119.3013,70.8457)">
          <path
             d="m 0,0 2.493,-6.655 c 0,0 -3.886,-0.465 -4.815,-3.096 -0.928,-2.631 1.084,-3.869 1.084,-3.869 h 7.834 c 0,0 0.715,2.321 0,12.072 C 5.881,8.202 -2.494,6.654 0,0"
             style="fill:#2c2c2c;fill-opacity:1;fill-rule:nonzero;stroke:none"
             id="path412" />
        </g>
        <g
           id="g414"
           transform="translate(134.5142,70.8457)">
          <path
             d="m 0,0 -2.494,-6.655 c 0,0 3.887,-0.465 4.816,-3.096 0.928,-2.631 -1.084,-3.869 -1.084,-3.869 h -7.834 c 0,0 -0.715,2.321 0,12.072 C -5.881,8.202 2.494,6.654 0,0"
             style="fill:#2c2c2c;fill-opacity:1;fill-rule:nonzero;stroke:none"
             id="path416" />
        </g>
        <g
           id="g418"
           transform="translate(104.8262,64.8281)">
          <path
             d="m 0,0 c 0,0 -0.874,-4.47 0,-7.342 l 10.161,-0.261 c 0,0 1.083,3.25 -1.084,3.802 0,0 1.084,4.73 -2.166,7.825 C 3.66,7.12 1.138,3.561 0,0"
             style="fill:#2c2c2c;fill-opacity:1;fill-rule:nonzero;stroke:none"
             id="path420" />
        </g>
        <g
           id="g422"
           transform="translate(121.4453,106.7852)">
          <path
             d="m 0,0 c 0.293,-2.117 -0.848,-4.023 -2.549,-4.259 -1.701,-0.235 -3.316,1.29 -3.609,3.406 -0.293,2.118 0.848,4.024 2.549,4.259 C -1.909,3.642 -0.293,2.117 0,0"
             style="fill:#000000;fill-opacity:1;fill-rule:nonzero;stroke:none"
             id="path424" />
        </g>
        <g
           id="g426"
           transform="translate(137.9893,109.0742)">
          <path
             d="m 0,0 c 0.293,-2.116 -0.848,-4.023 -2.549,-4.259 -1.7,-0.235 -3.316,1.29 -3.609,3.407 -0.293,2.117 0.848,4.024 2.549,4.259 C -1.909,3.643 -0.293,2.117 0,0"
             style="fill:#000000;fill-opacity:1;fill-rule:nonzero;stroke:none"
             id="path428" />
        </g>
        <g
           id="g430"
           transform="translate(124.625,103.1035)">
          <path
             d="M 0,0 C 0,0 4.706,1.247 5.633,0.934 6.814,0.534 5.31,-3.609 3.26,-4.037 2.041,-4.292 -2.331,-1.863 0,0"
             style="fill:#000000;fill-opacity:1;fill-rule:nonzero;stroke:none"
             id="path432" />
        </g>
        <g
           id="g434"
           transform="translate(123.9517,96.918)">
          <path
             d="m 0,0 c 0,0 -0.419,-1.135 0.673,-1.393 1.093,-0.258 3.105,-0.088 3.26,3.541 0,0 1.09,-2.871 2.789,-2.767 1.699,0.103 1.854,1.857 0.925,2.167"
             style="fill:none;stroke:#000000;stroke-width:1;stroke-linecap:butt;stroke-linejoin:miter;stroke-miterlimit:10;stroke-dasharray:none;stroke-opacity:1"
             id="path436" />
        </g>
        <g
           id="g438"
           transform="translate(116.7349,107.0391)">
          <path
             d="M 0,0 C 0.917,0 0.918,1.426 0,1.426 -0.917,1.426 -0.919,0 0,0"
             style="fill:#ffffff;fill-opacity:1;fill-rule:nonzero;stroke:none"
             id="path440" />
        </g>
        <g
           id="g442"
           transform="translate(133.353,109.1484)">
          <path
             d="M 0,0 C 0.917,0 0.919,1.426 0,1.426 -0.917,1.426 -0.918,0 0,0"
             style="fill:#ffffff;fill-opacity:1;fill-rule:nonzero;stroke:none"
             id="path444" />
        </g>
        <g
           id="g446"
           transform="translate(106.6099,114.8711)">
          <path
             d="M 0,0 C 0,0 -1.258,6.088 0,7.532 1.257,8.978 4.663,3.767 4.663,3.767 4.663,3.767 1.734,2.374 0,0"
             style="fill:#767676;fill-opacity:1;fill-rule:nonzero;stroke:none"
             id="path448" />
        </g>
        <g
           id="g450"
           transform="translate(141.1689,120.1074)">
          <path
             d="M 0,0 C 0,0 -0.271,6.21 -1.843,7.303 -3.417,8.396 -5.442,2.51 -5.442,2.51 -5.442,2.51 -2.263,1.876 0,0"
             style="fill:#767676;fill-opacity:1;fill-rule:nonzero;stroke:none"
             id="path452" />
        </g>
        <g
           id="g454"
           transform="translate(117.4229,89.5352)">
          <path
             d="m 0,0 c 0,0 14.663,-2.695 22.198,-2.573 -0.61,1.739 -1.544,3.408 -2.971,5.019 L 19.226,2.447 C 11.089,-0.731 0.969,1.141 0.969,1.141 0.969,1.141 0.566,0.759 0,0"
             style="fill:#181818;fill-opacity:1;fill-rule:nonzero;stroke:none"
             id="path456" />
        </g>
        <g
           id="g458"
           transform="translate(144.5483,118.3799)">
          <path
             d="m 0,0 c 0,0 0.929,9.441 -3.25,12.846 -0.893,0.727 -1.728,0.78 -2.491,0.419 0.796,-0.553 2.715,-2.297 3.523,-6.661 1.031,-5.573 0.515,-7.12 0.515,-7.12 0,0 6.266,-16.504 -4.392,-25.069 1.628,0.835 3.131,1.909 4.392,3.298 C 6.036,-13.775 0,0 0,0"
             style="fill:#181818;fill-opacity:1;fill-rule:nonzero;stroke:none"
             id="path460" />
        </g>
        <g
           id="g462"
           transform="translate(106.6099,112.3291)">
          <path
             d="m 0,0 c 0,0 -1.425,3.678 -2.302,7.778 -0.877,4.1 0,6.476 0,6.476 -4.643,-0.465 0.928,-17.489 0.928,-17.489 0,0 0.929,-8.049 4.334,-13.001 2.522,-3.668 6.142,-4.872 7.853,-5.251 C -0.371,-16.523 0,0 0,0"
             style="fill:#767676;fill-opacity:1;fill-rule:nonzero;stroke:none"
             id="path464" />
        </g>
        <g
           id="g466"
           transform="translate(148.0249,337.4658)">
          <path
             d="m 0,0 v -0.177 c -0.009,-0.996 -0.323,-6.283 -5.867,-7.45 0,0 4.964,-0.877 5.885,-6.677 1.014,5.697 5.885,6.677 5.885,6.677 C 0.018,-6.595 0,0 0,0"
             style="fill:#ffffff;fill-opacity:1;fill-rule:nonzero;stroke:none"
             id="path468" />
        </g>
        <g
           id="g470"
           transform="translate(150.416,311.9712)">
          <path
             d="m 0,0 v -0.105 c -0.006,-0.593 -0.192,-3.738 -3.491,-4.433 0,0 2.954,-0.522 3.501,-3.972 0.604,3.389 3.502,3.972 3.502,3.972 C 0.01,-3.924 0,0 0,0"
             style="fill:#ffffff;fill-opacity:1;fill-rule:nonzero;stroke:none"
             id="path472" />
        </g>
        <g
           id="g474"
           transform="translate(131.9009,327.3481)">
          <path
             d="m 0,0 v -0.105 c -0.006,-0.593 -0.193,-3.738 -3.491,-4.433 0,0 2.953,-0.522 3.501,-3.972 0.604,3.389 3.502,3.972 3.502,3.972 C 0.01,-3.924 0,0 0,0"
             style="fill:#ffffff;fill-opacity:1;fill-rule:nonzero;stroke:none"
             id="path476" />
        </g>
      </g>
    </g>
    
    
  </g>
</svg>
